<svg xmlns="http://www.w3.org/2000/svg" viewBox="0 0 17.014 22">
  <defs>
    <style>
      .cls-1 {
        fill: #665eff;
      }
    </style>
  </defs>
  <path id="path" class="cls-1" d="M12,2.5c4.6,0,8.7,3.8,8.5,8-.2,4.6-6.2,14-8.5,14s-8.3-9.3-8.5-14c-.2-4.2,3.9-8,8.5-8Zm0,19.9.9-.9a33.194,33.194,0,0,0,2.4-3.2c1.9-2.9,3.1-5.9,3.2-7.8.1-3.1-3-6-6.5-6s-6.6,2.9-6.5,6c.1,2,1.3,4.9,3.2,7.8a22.188,22.188,0,0,0,2.4,3.2,3.819,3.819,0,0,0,.9.9Zm0-7.9A3.5,3.5,0,1,1,15.5,11,3.543,3.543,0,0,1,12,14.5Zm0-2A1.5,1.5,0,1,0,10.5,11,1.538,1.538,0,0,0,12,12.5Z" transform="translate(-3.493 -2.5)"/>
</svg>
