<svg xmlns="http://www.w3.org/2000/svg" viewBox="0 0 20 20">
  <defs>
    <style>
      .cls-1 {
        fill: #665eff;
      }
    </style>
  </defs>
  <path id="path" class="cls-1" d="M20.6,4.6h0a2.819,2.819,0,0,1,0,5.333V21.548a.952.952,0,0,1-1.9,0V9.929a2.819,2.819,0,0,1,0-5.333V3.452a.952.952,0,0,1,1.9,0V4.6Zm-.952,3.619a.9.9,0,0,0,.952-.952.952.952,0,0,0-1.9,0,.9.9,0,0,0,.952.952ZM6.31,9.833h0a2.819,2.819,0,0,1,0,5.333v6.381a.9.9,0,0,1-.952.952.9.9,0,0,1-.952-.952V15.167a2.819,2.819,0,0,1,0-5.333V3.452A.9.9,0,0,1,5.357,2.5a.9.9,0,0,1,.952.952V9.833Zm-.952,3.619a.952.952,0,1,0,0-1.9.952.952,0,1,0,0,1.9Zm8.1-10V15.071a2.819,2.819,0,0,1,0,5.333v1.143a.952.952,0,1,1-1.9,0V20.4a2.819,2.819,0,0,1,0-5.333V3.452a.952.952,0,1,1,1.9,0ZM12.5,18.69a.952.952,0,1,0-.952-.952.9.9,0,0,0,.952.952Z" transform="translate(-2.5 -2.5)"/>
</svg>
