<svg xmlns="http://www.w3.org/2000/svg" viewBox="0 0 22.5 16">
  <defs>
    <style>
      .cls-1 {
        fill: #665eff;
      }
    </style>
  </defs>
  <path id="path" class="cls-1" d="M18.4,18.5a1.96,1.96,0,0,1-2,1.5H4.5a2.006,2.006,0,0,1-2-2v-.5c0-.3.1-.5.1-.8a10.378,10.378,0,0,1,.3-1.2c.6-1.3,4.7-2.9,7.6-2.9a14.988,14.988,0,0,1,4.5.9,9.838,9.838,0,0,1,4-1c2.2,0,5.2,1.3,5.7,2.3a2.509,2.509,0,0,1,.2,1c0,.2.1.4.1.6v.4a1.774,1.774,0,0,1-1.7,1.8H18.4v-.1Zm-1.1-3.7a1.68,1.68,0,0,1,.7.8,6.213,6.213,0,0,1,.3,1H23a.6.6,0,0,0-.1-.4c0-.1,0-.3-.1-.3a.349.349,0,0,0-.2-.1,9.292,9.292,0,0,0-1-.5,6.967,6.967,0,0,0-2.7-.6,2.265,2.265,0,0,0-1.6.1ZM19,11.5a2.946,2.946,0,0,1-3-3,3,3,0,0,1,6,0,2.946,2.946,0,0,1-3,3Zm0-2a.945.945,0,0,0,1-1,1,1,0,0,0-2,0,.945.945,0,0,0,1,1Zm-8.5,1.9A3.757,3.757,0,0,1,6.8,7.7,3.757,3.757,0,0,1,10.5,4a3.757,3.757,0,0,1,3.7,3.7,3.757,3.757,0,0,1-3.7,3.7Zm0-2a1.752,1.752,0,0,0,1.7-1.7,1.7,1.7,0,1,0-3.4,0,1.752,1.752,0,0,0,1.7,1.7Zm5.8,7.1a1.38,1.38,0,0,0-.4-.3c-.4-.2-.9-.5-1.4-.7a11.574,11.574,0,0,0-4-.9,10.414,10.414,0,0,0-4,.9c-.5.2-1,.5-1.4.7a1.381,1.381,0,0,0-.4.3h0a3.536,3.536,0,0,0-.1.6c0,.2-.1.5-.1.7V18H16.4v-.2c0-.2-.1-.5-.1-.7v-.6Z" transform="translate(-2.5 -4)"/>
</svg>
