<svg xmlns="http://www.w3.org/2000/svg" viewBox="0 0 108.391 53"><defs><style>.a{fill:#ffb900;font-size:44px;font-family:CenturyGothic, Century Gothic;}.b,.c{fill:#2a2e43;}.c{stroke:#707070;}.d{fill:#665eff;}.e,.g{stroke:none;}.f{fill:none;}.g{fill:#707070;}</style></defs><g transform="translate(-133.612 -179.731)"><text class="a" transform="translate(133.612 222.731)"><tspan x="0" y="0">MG</tspan></text><g transform="matrix(1, 0.017, -0.017, 1, 213.075, 188.712)"><path class="b" d="M6.249,0C1.169,0,0,.457,0,2.42S1.169,4.1,6.249,4.1,8.2,10.381,11.73,9.543,11.329,0,6.249,0Z" transform="translate(16.173 18.39)"/><path class="b" d="M7.817,0c4.149,0,6.771,1.072,6.771,2.608s-2.622.559-6.771.559S0,7.265,0,5.729,3.668,0,7.817,0Z" transform="translate(3.768 8.645)"/><path class="b" d="M5.189.006c2.777-.141,4.956,2.244,4.868,5.326s-2.41,5.7-5.187,5.837S-.086,8.925,0,5.843,2.413.147,5.189.006Z" transform="matrix(0.883, 0.469, -0.469, 0.883, 14.312, 7.416)"/><g class="c" transform="translate(0 12.9)"><ellipse class="e" cx="12.827" cy="10.431" rx="12.827" ry="10.431"/><ellipse class="f" cx="12.827" cy="10.431" rx="12.327" ry="9.931"/></g><g class="d" transform="translate(1.099 13.894)"><path class="e" d="M 11.7275218963623 18.37502288818359 C 5.536642074584961 18.37502288818359 0.5000019073486328 14.36567211151123 0.5000019073486328 9.437512397766113 C 0.5000019073486328 4.509352207183838 5.536642074584961 0.500002384185791 11.7275218963623 0.500002384185791 C 17.91840171813965 0.500002384185791 22.95504188537598 4.509352207183838 22.95504188537598 9.437512397766113 C 22.95504188537598 14.36567211151123 17.91840171813965 18.37502288818359 11.7275218963623 18.37502288818359 Z"/><path class="g" d="M 11.7275218963623 17.87502288818359 C 17.64269256591797 17.87502288818359 22.45504188537598 14.08997249603271 22.45504188537598 9.437512397766113 C 22.45504188537598 4.785052299499512 17.64269256591797 1.000002384185791 11.7275218963623 1.000002384185791 C 5.812351703643799 1.000002384185791 1.000001907348633 4.785052299499512 1.000001907348633 9.437512397766113 C 1.000001907348633 14.08997249603271 5.812351703643799 17.87502288818359 11.7275218963623 17.87502288818359 M 11.7275218963623 18.87502288818359 C 5.25059175491333 18.87502288818359 1.896362277875596e-06 14.64970207214355 1.896362277875596e-06 9.437512397766113 C 1.896362277875596e-06 4.225322246551514 5.25059175491333 2.397766138528823e-06 11.7275218963623 2.397766138528823e-06 C 18.20445251464844 2.397766138528823e-06 23.45504188537598 4.225322246551514 23.45504188537598 9.437512397766113 C 23.45504188537598 14.64970207214355 18.20445251464844 18.87502288818359 11.7275218963623 18.87502288818359 Z"/></g><ellipse class="b" cx="4.581" cy="4.139" rx="4.581" ry="4.139" transform="translate(17.642 0)"/></g></g></svg>