<svg xmlns="http://www.w3.org/2000/svg" viewBox="0 0 22 20.985">
  <defs>
    <style>
      .cls-1 {
        fill: #665eff;
      }
    </style>
  </defs>
  <path id="path" class="cls-1" d="M6.5,6.5v-2a2.006,2.006,0,0,1,2-2h14a2.006,2.006,0,0,1,2,2V14a2.006,2.006,0,0,1-2,2h-1v3.5a1,1,0,0,1-1.7.7L18.6,19H11.4L7.2,23.2a1,1,0,0,1-1.7-.7V19h-1a2.006,2.006,0,0,1-2-2V8.5a2.006,2.006,0,0,1,2-2Zm13,8.5a.945.945,0,0,1,1-1h2V4.5H8.5V14H16a.908.908,0,0,1,.7.3l2.8,2.8V15ZM6.5,8.5h-2V17h2a.945.945,0,0,1,1,1v2.1l2.8-2.8A.908.908,0,0,1,11,17h5.6l-1-1H8.5a2.006,2.006,0,0,1-2-2V8.5Z" transform="translate(-2.5 -2.5)"/>
</svg>
